<svg xmlns="http://www.w3.org/2000/svg" width="27" height="27" viewBox="0 0 27 27" fill="none">
  <path d="M7.59375 3.375V5.90625M19.4062 3.375V5.90625M3.375 21.0938V8.4375C3.375 7.76617 3.64168 7.12234 4.11639 6.64764C4.59109 6.17293 5.23492 5.90625 5.90625 5.90625H21.0938C21.7651 5.90625 22.4089 6.17293 22.8836 6.64764C23.3583 7.12234 23.625 7.76617 23.625 8.4375V21.0938M3.375 21.0938C3.375 21.7651 3.64168 22.4089 4.11639 22.8836C4.59109 23.3583 5.23492 23.625 5.90625 23.625H21.0938C21.7651 23.625 22.4089 23.3583 22.8836 22.8836C23.3583 22.4089 23.625 21.7651 23.625 21.0938M3.375 21.0938V12.6562C3.375 11.9849 3.64168 11.3411 4.11639 10.8664C4.59109 10.3917 5.23492 10.125 5.90625 10.125H21.0938C21.7651 10.125 22.4089 10.3917 22.8836 10.8664C23.3583 11.3411 23.625 11.9849 23.625 12.6562V21.0938M13.5 14.3438H13.509V14.3528H13.5V14.3438ZM13.5 16.875H13.509V16.884H13.5V16.875ZM13.5 19.4062H13.509V19.4152H13.5V19.4062ZM10.9688 16.875H10.9778V16.884H10.9688V16.875ZM10.9688 19.4062H10.9778V19.4152H10.9688V19.4062ZM8.4375 16.875H8.4465V16.884H8.4375V16.875ZM8.4375 19.4062H8.4465V19.4152H8.4375V19.4062ZM16.0312 14.3438H16.0403V14.3528H16.0312V14.3438ZM16.0312 16.875H16.0403V16.884H16.0312V16.875ZM16.0312 19.4062H16.0403V19.4152H16.0312V19.4062ZM18.5625 14.3438H18.5715V14.3528H18.5625V14.3438ZM18.5625 16.875H18.5715V16.884H18.5625V16.875Z" stroke="#787878" stroke-width="3" stroke-linecap="round" stroke-linejoin="round"/>
</svg>