<svg xmlns="http://www.w3.org/2000/svg" width="64" height="64" viewBox="0 0 64 64" fill="none">
  <rect width="64" height="64" rx="32" fill="#F6F8FC"/>
  <path d="M27.3333 40.1667V41.7331C27.3334 42.3462 27.2127 42.9532 26.9781 43.5196C26.7435 44.086 26.3996 44.6006 25.966 45.034L25 46H39L38.034 45.034C37.6004 44.6006 37.2565 44.086 37.0219 43.5196C36.7873 42.9532 36.6666 42.3462 36.6667 41.7331V40.1667M46 21.5V36.6667C46 37.5949 45.6313 38.4852 44.9749 39.1415C44.3185 39.7979 43.4283 40.1667 42.5 40.1667H21.5C20.5717 40.1667 19.6815 39.7979 19.0251 39.1415C18.3687 38.4852 18 37.5949 18 36.6667V21.5M46 21.5C46 20.5717 45.6313 19.6815 44.9749 19.0251C44.3185 18.3687 43.4283 18 42.5 18H21.5C20.5717 18 19.6815 18.3687 19.0251 19.0251C18.3687 19.6815 18 20.5717 18 21.5M46 21.5V32C46 32.9283 45.6313 33.8185 44.9749 34.4749C44.3185 35.1313 43.4283 35.5 42.5 35.5H21.5C20.5717 35.5 19.6815 35.1313 19.0251 34.4749C18.3687 33.8185 18 32.9283 18 32V21.5" stroke="#0075FF" stroke-width="2" stroke-linecap="round" stroke-linejoin="round"/>
</svg>