<svg xmlns="http://www.w3.org/2000/svg" width="27" height="27" viewBox="0 0 27 27" fill="none">
  <g clip-path="url(#clip0_13_80)">
    <path d="M3.65625 12.1078V11.2629C3.65625 10.5906 3.9233 9.94587 4.39866 9.47051C4.87402 8.99515 5.51875 8.7281 6.191 8.7281H23.0894C23.7616 8.7281 24.4064 8.99515 24.8817 9.47051C25.3571 9.94587 25.6241 10.5906 25.6241 11.2629V12.1078M15.8343 4.85274L13.446 2.46444C13.2891 2.30734 13.1028 2.1827 12.8977 2.09765C12.6926 2.0126 12.4728 1.9688 12.2508 1.96875H6.191C5.51875 1.96875 4.87402 2.2358 4.39866 2.71116C3.9233 3.18652 3.65625 3.83125 3.65625 4.5035V18.0222C3.65625 18.6945 3.9233 19.3392 4.39866 19.8145C4.87402 20.2899 5.51875 20.557 6.191 20.557H23.0894C23.7616 20.557 24.4064 20.2899 24.8817 19.8145C25.3571 19.3392 25.6241 18.6945 25.6241 18.0222V7.88318C25.6241 7.21092 25.3571 6.56619 24.8817 6.09084C24.4064 5.61548 23.7616 5.34842 23.0894 5.34842H17.0296C16.5816 5.34803 16.1509 5.16973 15.8343 4.85274Z" stroke="#787878" stroke-width="3" stroke-linecap="round" stroke-linejoin="round"/>
  </g>
  <defs>
    <clipPath id="clip0_13_80">
      <rect width="27" height="27" fill="white"/>
    </clipPath>
  </defs>
</svg>