<svg xmlns="http://www.w3.org/2000/svg" width="22" height="20" viewBox="0 0 22 20" fill="none">
  <path d="M7.6 20C8.15228 20 8.6 19.5523 8.6 19V13.9412C8.6 13.3889 9.04772 12.9412 9.6 12.9412H12.4C12.9523 12.9412 13.4 13.3889 13.4 13.9412V19C13.4 19.5523 13.8477 20 14.4 20H18.4C18.9523 20 19.4 19.5523 19.4 19V11.576C19.4 11.0304 19.8422 10.5882 20.3877 10.5882C21.2977 10.5882 21.7236 9.46197 21.0412 8.85989L11.6616 0.583784C11.2836 0.250234 10.7164 0.250234 10.3384 0.583784L0.958789 8.85989C0.276435 9.46197 0.702281 10.5882 1.61228 10.5882C2.15778 10.5882 2.6 11.0305 2.6 11.576V19C2.6 19.5523 3.04772 20 3.6 20H7.6Z" fill="#777C89"/>
</svg>