<svg xmlns="http://www.w3.org/2000/svg" width="28" height="28" viewBox="0 0 28 28" fill="none">
  <g clip-path="url(#clip0_173_170)">
    <path d="M28 6.55538C27.9799 7.39624 27.7067 8.14833 27.1304 8.78241C27.0405 8.88093 26.9476 8.97659 26.8537 9.0711C21.5427 14.3907 16.2299 19.7091 10.9217 25.0315C10.6513 25.303 10.3494 25.4875 9.97994 25.5906C7.2044 26.3667 4.43173 27.1509 1.65735 27.9305C0.804349 28.1705 0.100297 27.7735 0.00634729 26.983C-0.0171402 26.7831 0.0281162 26.5655 0.0836842 26.3679C0.866219 23.5554 1.65047 20.743 2.45363 17.9363C2.53097 17.6654 2.69251 17.3864 2.8913 17.1871C8.26421 11.7948 13.6572 6.42134 19.0232 1.02215C20.6329 -0.597717 22.7365 -0.0535595 23.8427 1.00898C24.9283 2.05147 25.9784 3.13119 27.0364 4.20175C27.6752 4.84844 27.9817 5.6389 28 6.5548V6.55538ZM17.2679 6.20597C13.2802 10.1732 9.29135 14.1421 5.31337 18.0995C6.84923 19.6312 8.38565 21.1629 9.85677 22.6298C13.8296 18.6763 17.8236 14.7023 21.8108 10.7345C20.2898 9.21831 18.7597 7.69352 17.2674 6.20654L17.2679 6.20597ZM23.5397 9.08084C24.1297 8.49086 24.7186 7.90832 25.2995 7.31834C25.7922 6.81772 25.7922 6.26153 25.2955 5.76148C24.2758 4.73331 23.2532 3.70857 22.2267 2.68728C21.7374 2.2004 21.1588 2.20326 20.6645 2.68957C20.1145 3.23086 19.5714 3.77903 19.0266 4.3249C18.9825 4.36901 18.9476 4.42342 18.9109 4.47039C20.4554 6.00835 21.9866 7.53429 23.5397 9.08084ZM2.83458 25.1701C4.46496 24.7102 6.04034 24.2657 7.57906 23.8315C6.44135 22.6979 5.30707 21.5672 4.16879 20.4325C3.7357 21.9705 3.29402 23.5394 2.83458 25.1701Z" fill="#787878"/>
  </g>
  <defs>
    <clipPath id="clip0_173_170">
      <rect width="28" height="28" fill="white"/>
    </clipPath>
  </defs>
</svg>