<svg xmlns="http://www.w3.org/2000/svg" width="102" height="34" viewBox="0 0 102 34" fill="none">
  <g clip-path="url(#clip0_329_67)">
    <path d="M14.2016 0V4.68736H11.83C10.8395 4.68736 9.91879 4.86872 9.06781 5.24538C8.20288 5.60809 7.44955 6.12426 6.80783 6.76598C6.16611 7.4077 5.64994 8.17498 5.28723 9.02596C4.92452 9.89089 4.72921 10.8116 4.72921 11.7881V18.8889C4.72921 21.5116 2.60874 23.6321 0 23.6321V11.7881C0 10.142 0.30691 8.60744 0.920731 7.18449C1.53455 5.76155 2.38553 4.51995 3.47367 3.44577C4.5618 2.37158 5.81735 1.53455 7.2682 0.920731C8.71905 0.30691 10.2257 0 11.844 0H14.2155L14.2016 0Z" fill="#111111"/>
    <path d="M25.7665 0C27.4127 0 28.9472 0.30691 30.3702 0.920731C31.7931 1.53455 33.0347 2.37158 34.1089 3.44577C35.1831 4.51995 36.0201 5.76155 36.6339 7.18449C37.2478 8.60744 37.5547 10.142 37.5547 11.7881V23.6321H25.7665C24.1483 23.6321 22.6277 23.3252 21.1908 22.7114C19.7539 22.0975 18.4844 21.2466 17.3962 20.1584C16.3081 19.0703 15.4571 17.8148 14.8433 16.3639C14.2295 14.927 13.9226 13.4064 13.9226 11.7881C13.9226 10.1699 14.2295 8.60744 14.8433 7.18449C15.4571 5.76155 16.3081 4.51995 17.3962 3.44577C18.4844 2.37158 19.7399 1.53455 21.1908 0.920731C22.6277 0.30691 24.1483 0 25.7665 0ZM32.8673 18.9447V11.7881C32.8673 10.8116 32.686 9.89089 32.3093 9.02596C31.9466 8.16103 31.4304 7.4077 30.7887 6.76598C30.133 6.12426 29.3797 5.60809 28.5287 5.24538C27.6638 4.88267 26.7431 4.68736 25.7665 4.68736C24.79 4.68736 23.8553 4.86872 22.9764 5.24538C22.0976 5.60809 21.3303 6.12426 20.6886 6.76598C20.0468 7.4077 19.5307 8.17498 19.168 9.02596C18.8052 9.89089 18.6099 10.8116 18.6099 11.7881C18.6099 12.7647 18.7913 13.6994 19.168 14.5782C19.5307 15.4571 20.0468 16.2244 20.6886 16.8661C21.3303 17.5218 22.0976 18.024 22.9764 18.3867C23.8553 18.7494 24.776 18.9447 25.7665 18.9447H32.8673Z" fill="#111111"/>
    <path d="M50.8076 0.111572C52.4538 0.111572 53.9883 0.418483 55.4113 1.0323C56.8342 1.64612 58.0898 2.48315 59.1779 3.55734C60.266 4.63153 61.117 5.87312 61.7308 7.29607C62.3447 8.71901 62.6516 10.2536 62.6516 11.8997C62.6516 13.5459 62.3447 15.0386 61.7308 16.4755C61.117 17.9124 60.266 19.1819 59.1779 20.27C58.0898 21.3581 56.8342 22.2091 55.4113 22.8229C53.9883 23.4368 52.4538 23.7437 50.8076 23.7437H43.7068V28.5287C43.7068 31.1095 41.6143 33.216 39.0195 33.216V11.8997C39.0195 10.2536 39.3264 8.71901 39.9402 7.29607C40.554 5.87312 41.3911 4.63153 42.4652 3.55734C43.5394 2.48315 44.795 1.64612 46.2319 1.0323C47.6688 0.418483 49.1894 0.111572 50.8076 0.111572ZM53.5977 18.4983C54.4766 18.1356 55.2299 17.6194 55.8856 16.9777C56.5413 16.336 57.0435 15.5687 57.4062 14.6898C57.7689 13.8109 57.9642 12.8902 57.9642 11.8997C57.9642 10.9092 57.7829 10.0025 57.4062 9.13753C57.0435 8.2726 56.5273 7.51927 55.8856 6.87755C55.2299 6.23583 54.4766 5.71966 53.5977 5.35695C52.7188 4.99424 51.7842 4.79893 50.8076 4.79893C49.8311 4.79893 48.8964 4.98029 48.0454 5.35695C47.1805 5.71966 46.4272 6.23583 45.7854 6.87755C45.1437 7.51927 44.6276 8.28655 44.2648 9.13753C43.9021 10.0025 43.7068 10.9232 43.7068 11.8997V19.0563H50.8076C51.7842 19.0563 52.7188 18.875 53.5977 18.4983Z" fill="#111111"/>
    <path d="M78.3319 3.44571e-05V4.68739H75.9603C74.9698 4.68739 74.0491 4.86875 73.1981 5.24541C72.3332 5.60812 71.5799 6.12429 70.9381 6.76601C70.2964 7.40774 69.7802 8.17501 69.4175 9.02599C69.0548 9.89092 68.8595 10.8117 68.8595 11.7882V18.889C68.8595 21.4977 66.739 23.6182 64.1303 23.6182V11.7742C64.1303 10.1281 64.4372 8.59353 65.051 7.17058C65.6649 5.74763 66.5158 4.50604 67.604 3.43185C68.6921 2.35766 69.9477 1.52064 71.3985 0.906815C72.8494 0.292994 74.356 -0.013916 75.9743 -0.013916H78.3458L78.3319 3.44571e-05Z" fill="#111111"/>
    <path d="M77.4112 11.7881C77.4112 10.142 77.7181 8.60744 78.3319 7.18449C78.9457 5.76155 79.7828 4.51995 80.857 3.44577C81.9311 2.37158 83.1727 1.53455 84.6236 0.920731C86.0605 0.30691 87.5811 0 89.1993 0C90.8176 0 92.38 0.30691 93.803 0.920731C95.2259 1.53455 96.4815 2.37158 97.5696 3.44577C98.6578 4.51995 99.5087 5.76155 100.123 7.18449C100.736 8.60744 101.043 10.142 101.043 11.7881C101.043 13.4343 100.736 14.927 100.123 16.3639C99.5087 17.8008 98.6578 19.0703 97.5696 20.1584C96.4815 21.2466 95.2259 22.0975 93.803 22.7114C92.38 23.3252 90.8455 23.6321 89.1993 23.6321C87.5532 23.6321 86.0605 23.3252 84.6236 22.7114C83.1867 22.0975 81.9311 21.2466 80.857 20.1584C79.7828 19.0703 78.9457 17.8148 78.3319 16.3639C77.7181 14.927 77.4112 13.4064 77.4112 11.7881ZM82.0427 11.7881C82.0427 12.7647 82.2241 13.6994 82.6008 14.5782C82.9635 15.4571 83.4796 16.2244 84.1214 16.8661C84.7631 17.5218 85.5304 18.024 86.4092 18.3867C87.2881 18.7494 88.2089 18.9447 89.1993 18.9447C90.1898 18.9447 91.1106 18.7634 91.9894 18.3867C92.8683 18.024 93.6356 17.5078 94.2773 16.8661C94.919 16.2244 95.4352 15.4571 95.7979 14.5782C96.1606 13.6994 96.3559 12.7786 96.3559 11.7881C96.3559 10.7977 96.1746 9.89089 95.7979 9.02596C95.4352 8.16103 94.919 7.4077 94.2773 6.76598C93.6356 6.12426 92.8683 5.60809 91.9894 5.24538C91.1106 4.88267 90.1898 4.68736 89.1993 4.68736C88.2089 4.68736 87.2881 4.86872 86.4092 5.24538C85.5304 5.60809 84.7631 6.12426 84.1214 6.76598C83.4796 7.4077 82.9635 8.17498 82.6008 9.02596C82.2381 9.89089 82.0427 10.8116 82.0427 11.7881Z" fill="#111111"/>
  </g>
  <defs>
    <clipPath id="clip0_329_67">
      <rect width="101.043" height="33.2021" fill="white"/>
    </clipPath>
  </defs>
</svg>